<svg xmlns="http://www.w3.org/2000/svg" viewBox="0 6.949999809265137 207.60000610351562 43.04999923706055" data-asc="0.986" width="207.60000610351562" height="43.04999923706055"><defs/><g><g fill="#000000"><g transform="translate(0, 0)"><path d="M1.80 45.70Q3.50 45.70 5.13 44.02Q6.75 42.35 7.85 39.50Q7.80 38.80 7.80 38.10Q7.80 34.30 9.30 31.35Q10.80 28.40 13.38 26.70Q15.95 25.00 19.25 25.00Q21.00 25.00 22.70 25.67Q24.40 26.35 25.55 27.50L25.55 7.30Q26.50 6.95 27.85 6.95Q29.00 6.95 30.10 7.30L30.10 40.55Q30.10 43.30 30.83 44.50Q31.55 45.70 33.15 45.70Q33.85 45.70 34.23 46.30Q34.60 46.90 34.60 47.90Q34.60 48.70 34.18 49.35Q33.75 50 32.80 50Q28.05 50 26.40 46.10Q24.95 47.95 22.90 48.97Q20.85 50 18.35 50Q15.45 50 13.22 48.72Q11 47.45 9.60 45.20Q6.50 50 1.45 50Q0.80 50 0.40 49.40Q0 48.80 0 47.85Q0 45.70 1.80 45.70M12.45 38.10Q12.45 41.65 14.08 43.67Q15.70 45.70 18.55 45.70Q21.70 45.70 23.63 43.55Q25.55 41.40 25.55 37.90L25.55 32.30Q24.55 30.95 23.00 30.12Q21.45 29.30 19.80 29.30Q17.65 29.30 16 30.45Q14.35 31.60 13.40 33.57Q12.45 35.55 12.45 38.10ZM32.80 50Q32.15 50 31.75 49.40Q31.35 48.80 31.35 47.85Q31.35 45.70 33.15 45.70Q35.35 45.70 37.08 43.88Q38.80 42.05 39.83 38.90Q40.85 35.75 40.85 31.90Q40.85 31.00 40.75 30.25Q40.65 29.50 40.50 29.00Q40.05 28.55 39.53 27.55Q39 26.55 38.63 25.42Q38.25 24.30 38.25 23.60Q38.85 22.65 40.18 22.12Q41.50 21.60 43.10 21.85Q44.05 23.60 44.65 26.25Q46.15 26.20 48.70 25.60Q50.30 25.25 51.28 25.12Q52.25 25.00 52.95 25.00Q55.65 25.00 57.20 27.02Q58.75 29.05 58.75 32.50L58.75 40.55Q58.75 43.30 59.48 44.50Q60.20 45.70 61.80 45.70Q62.50 45.70 62.88 46.30Q63.25 46.90 63.25 47.90Q63.25 48.70 62.83 49.35Q62.40 50 61.45 50Q54.20 50 54.20 41.10L54.20 33.35Q54.20 31.10 53.70 30.20Q53.20 29.30 51.90 29.30Q51.45 29.30 50.90 29.40Q50.35 29.50 48.95 29.80Q46.50 30.30 45.25 30.40Q45.30 31.20 45.30 32.00Q45.30 37.40 43.75 41.45Q42.20 45.50 39.38 47.75Q36.55 50 32.80 50ZM61.45 50Q60.80 50 60.40 49.40Q60.00 48.80 60.00 47.85Q60.00 45.70 61.80 45.70Q63.25 45.70 64.75 45.22Q66.25 44.75 68.25 43.60Q66.30 40.20 66.30 35.60Q66.30 32.50 67.45 30.12Q68.60 27.75 70.65 26.37Q72.70 25.00 75.30 25.00Q77.50 25.00 79.20 26.02Q80.90 27.05 81.85 28.85Q82.80 30.65 82.80 33Q82.80 36.20 80.93 38.85Q79.05 41.50 74.60 44.60Q76.20 45.75 78.90 45.75Q79.60 45.75 80.00 46.35Q80.40 46.95 80.40 47.95Q80.40 48.90 79.95 49.45Q79.50 50 78.65 50Q76.25 50 74.15 49.20Q72.05 48.40 70.65 47Q65.85 50 61.45 50M70.65 35.20Q70.65 39.15 72.05 41.50Q75.30 39.25 76.88 37.10Q78.45 34.95 78.45 33Q78.45 31.20 77.58 30.17Q76.70 29.15 75.15 29.15Q73.20 29.15 71.93 30.90Q70.65 32.65 70.65 35.20ZM83.90 45.70Q85.60 45.70 87.23 44.02Q88.85 42.35 89.95 39.50Q89.90 38.80 89.90 38.10Q89.90 34.30 91.40 31.35Q92.90 28.40 95.48 26.70Q98.05 25.00 101.35 25.00Q103.10 25.00 104.80 25.67Q106.50 26.35 107.65 27.50L107.65 25.45Q108.10 25.30 108.70 25.20Q109.30 25.10 109.95 25.10Q111.15 25.10 112.20 25.45L112.20 40.10Q112.20 42.75 113.03 44.22Q113.85 45.70 115.80 45.70Q116.65 45.70 116.95 46.40Q117.25 47.10 117.25 47.90Q117.25 48.70 116.83 49.35Q116.40 50 115.45 50Q110.55 50 108.90 45.60Q107.45 47.65 105.28 48.82Q103.10 50 100.45 50Q97.55 50 95.33 48.72Q93.10 47.45 91.70 45.20Q88.60 50 83.55 50Q82.90 50 82.50 49.40Q82.10 48.80 82.10 47.85Q82.10 45.70 83.90 45.70M94.55 38.10Q94.55 41.65 96.18 43.67Q97.80 45.70 100.65 45.70Q103.80 45.70 105.73 43.55Q107.65 41.40 107.65 37.90L107.65 32.30Q106.65 30.95 105.10 30.12Q103.55 29.30 101.90 29.30Q99.75 29.30 98.10 30.45Q96.45 31.60 95.50 33.57Q94.55 35.55 94.55 38.10ZM115.45 50Q114.80 50 114.40 49.40Q114.00 48.80 114.00 47.85Q114.00 45.70 115.80 45.70Q117.40 45.70 118.68 44.07Q119.95 42.45 120.90 38.65L122.40 32.80Q124.50 25.00 130.40 25.00Q132.55 25.00 134.08 26.22Q135.60 27.45 136.25 29.60Q137.40 27.40 139.28 26.20Q141.15 25.00 143.50 25.00Q148.40 25.00 150.15 30.05Q151.35 27.65 153.40 26.32Q155.45 25.00 158.05 25.00Q161.60 25.00 163.50 27.25Q165.40 29.50 165.40 33.60L165.40 40.55Q165.40 43.30 166.13 44.50Q166.85 45.70 168.45 45.70Q169.15 45.70 169.53 46.30Q169.90 46.90 169.90 47.90Q169.90 48.70 169.48 49.35Q169.05 50 168.10 50Q160.85 50 160.85 41.10L160.85 34.70Q160.85 32.10 159.90 30.70Q158.95 29.30 157.20 29.30Q154.55 29.30 153.03 32.32Q151.50 35.35 151.50 40.70L151.50 49.30Q151.00 49.45 150.40 49.55Q149.80 49.65 149.25 49.65Q148.05 49.65 146.95 49.30L146.95 35.40Q146.95 32.45 145.93 30.87Q144.90 29.30 142.90 29.30Q141.05 29.30 139.70 30.72Q138.35 32.15 137.58 34.72Q136.80 37.30 136.80 40.70L136.80 49.30Q136.30 49.45 135.70 49.55Q135.10 49.65 134.55 49.65Q133.30 49.65 132.30 49.30L132.30 33.35Q132.30 29.30 130.00 29.30Q128.95 29.30 128.20 30.25Q127.45 31.20 126.90 33.30L125.05 40.50Q123.75 45.45 121.45 47.72Q119.15 50 115.45 50ZM168.10 50Q167.45 50 167.05 49.40Q166.65 48.80 166.65 47.85Q166.65 45.70 168.45 45.70Q170.65 45.70 172.38 43.88Q174.10 42.05 175.13 38.90Q176.15 35.75 176.15 31.90Q176.15 31.00 176.05 30.25Q175.95 29.50 175.80 29.00Q175.35 28.55 174.83 27.55Q174.30 26.55 173.93 25.42Q173.55 24.30 173.55 23.60Q174.15 22.65 175.48 22.12Q176.80 21.60 178.40 21.85Q179.35 23.60 179.95 26.25Q181.45 26.20 184.00 25.60Q185.60 25.25 186.58 25.12Q187.55 25.00 188.25 25.00Q190.95 25.00 192.50 27.02Q194.05 29.05 194.05 32.50L194.05 40.55Q194.05 43.30 194.78 44.50Q195.50 45.70 197.10 45.70Q197.80 45.70 198.18 46.30Q198.55 46.90 198.55 47.90Q198.55 48.70 198.13 49.35Q197.70 50 196.75 50Q189.50 50 189.50 41.10L189.50 33.35Q189.50 31.10 189.00 30.20Q188.50 29.30 187.20 29.30Q186.75 29.30 186.20 29.40Q185.65 29.50 184.25 29.80Q181.80 30.30 180.55 30.40Q180.60 31.20 180.60 32.00Q180.60 37.40 179.05 41.45Q177.50 45.50 174.68 47.75Q171.85 50 168.10 50ZM204.15 50Q202.75 50 201.75 48.97Q200.75 47.95 200.75 46.55Q200.75 45.15 201.75 44.15Q202.75 43.15 204.15 43.15Q205.55 43.15 206.58 44.15Q207.60 45.15 207.60 46.55Q207.60 47.95 206.58 48.97Q205.55 50 204.15 50Z"/></g><g transform="translate(0, 100.7)"><path d=""/></g></g></g></svg>